<svg width="136" height="41" viewBox="0 0 136 41" fill="none" xmlns="http://www.w3.org/2000/svg">
<g clip-path="url(#clip0)">
<path d="M130.507 39.877H5.207C2.452 39.877 0.195999 37.647 0.195999 34.924V5.20205C0.195999 2.47905 2.452 0.248047 5.208 0.248047H130.507C133.262 0.248047 135.519 2.47805 135.519 5.20205V34.924C135.519 37.647 133.262 39.877 130.507 39.877Z" fill="black"/>
<path d="M41.676 13.196V7.23598H43.5C44.4107 7.23598 45.1407 7.51065 45.69 8.05998C46.2447 8.60931 46.522 9.32798 46.522 10.216C46.522 11.1093 46.2447 11.8306 45.69 12.38C45.1407 12.924 44.4107 13.196 43.5 13.196H41.677H41.676ZM42.442 7.96798V12.464H43.499C44.193 12.464 44.7397 12.267 45.139 11.873C45.539 11.473 45.739 10.9206 45.739 10.216C45.739 9.51598 45.539 8.96631 45.139 8.56698C44.7397 8.16765 44.193 7.96798 43.499 7.96798H42.442ZM48.198 13.196H47.432V7.23598H48.198V13.196ZM53.08 11.606C53.08 12.128 52.8883 12.547 52.505 12.863C52.1163 13.1743 51.6447 13.33 51.09 13.33C50.596 13.33 50.1603 13.1856 49.783 12.897C49.4057 12.6083 49.1447 12.214 49 11.714L49.733 11.414C49.783 11.592 49.8523 11.7533 49.941 11.898C50.0297 12.042 50.1323 12.1666 50.249 12.272C50.371 12.372 50.5043 12.4526 50.649 12.514C50.793 12.5693 50.9453 12.597 51.106 12.597C51.456 12.597 51.742 12.508 51.964 12.33C52.186 12.1473 52.297 11.906 52.297 11.606C52.297 11.3566 52.2053 11.1433 52.022 10.966C51.85 10.7933 51.528 10.6266 51.056 10.466C50.5787 10.294 50.282 10.1773 50.166 10.116C49.5327 9.79398 49.216 9.31931 49.216 8.69198C49.216 8.25398 49.391 7.87931 49.741 7.56798C50.0963 7.25731 50.532 7.10198 51.048 7.10198C51.5033 7.10198 51.8973 7.21865 52.23 7.45198C52.5633 7.67931 52.7853 7.96498 52.896 8.30898L52.18 8.60898C52.1133 8.38698 51.98 8.20365 51.78 8.05898C51.5867 7.90965 51.3483 7.83498 51.065 7.83498C50.765 7.83498 50.5123 7.91831 50.307 8.08498C50.1017 8.24031 49.999 8.44265 49.999 8.69198C49.999 8.89731 50.0797 9.07498 50.241 9.22498C50.4183 9.37498 50.804 9.55265 51.398 9.75798C52.0027 9.96331 52.4327 10.216 52.688 10.516C52.9487 10.8093 53.079 11.1726 53.079 11.606H53.08ZM54.767 10.782V13.196H54.001V7.23598H56.033C56.549 7.23598 56.9873 7.40798 57.348 7.75198C57.7147 8.09598 57.898 8.51498 57.898 9.00898C57.898 9.51365 57.7147 9.93531 57.348 10.274C56.9927 10.6126 56.5543 10.782 56.033 10.782H54.767ZM54.767 7.96798V10.049H56.049C56.3543 10.049 56.607 9.94631 56.807 9.74098C57.0123 9.53565 57.115 9.29165 57.115 9.00898C57.115 8.73098 57.0123 8.48931 56.807 8.28398C56.607 8.07331 56.3543 7.96798 56.049 7.96798H54.767ZM64.455 10.216C64.455 11.0986 64.161 11.8366 63.573 12.43C62.979 13.03 62.252 13.33 61.392 13.33C60.5253 13.33 59.798 13.03 59.21 12.43C58.622 11.8366 58.328 11.0986 58.328 10.216C58.328 9.33331 58.622 8.59498 59.21 8.00098C59.7987 7.40165 60.526 7.10198 61.392 7.10198C62.2573 7.10198 62.984 7.40465 63.572 8.00998C64.1607 8.60331 64.455 9.33865 64.455 10.216ZM59.11 10.216C59.11 10.904 59.3267 11.473 59.76 11.923C60.1987 12.3723 60.7427 12.597 61.392 12.597C62.0413 12.597 62.5823 12.3723 63.015 11.923C63.4537 11.479 63.673 10.91 63.673 10.216C63.673 9.52265 63.4537 8.95365 63.015 8.50898C62.5817 8.05965 62.0407 7.83498 61.392 7.83498C60.7427 7.83498 60.1987 8.05965 59.76 8.50898C59.3267 8.95898 59.11 9.52798 59.11 10.216ZM66.133 13.196H65.367V7.23598H66.3L69.197 11.873H69.23L69.197 10.723V7.23598H69.963V13.197H69.163L66.133 8.33498H66.1L66.133 9.48498V13.197V13.196ZM71.922 13.196H71.156V7.23598H71.922V13.196ZM72.472 5.70398L71.872 6.76898H71.206L71.639 5.70398H72.471H72.472ZM75.391 13.196H74.591L72.494 7.23598H73.343L74.975 12.072H75.008L76.706 7.23498H77.556L75.391 13.196ZM81.742 7.23498V7.96798H79.028V9.85798H81.475V10.574H79.028V12.464H81.742V13.196H78.262V7.23598H81.742V7.23498ZM86.129 13.196H82.782V7.23598H83.548V12.464H86.128V13.196H86.129ZM89.532 13.196H88.766V7.23598H89.698L92.595 11.873H92.629L92.595 10.723V7.23598H93.361V13.197H92.562L89.532 8.33498H89.498L89.532 9.48498V13.197V13.196ZM100.31 10.216C100.31 11.0986 100.016 11.8366 99.427 12.43C98.833 13.03 98.1057 13.33 97.245 13.33C96.3797 13.33 95.653 13.03 95.065 12.43C94.4763 11.8366 94.182 11.0986 94.182 10.216C94.182 9.33331 94.476 8.59498 95.064 8.00098C95.6527 7.40165 96.3797 7.10198 97.245 7.10198C98.1117 7.10198 98.839 7.40465 99.427 8.00998C100.015 8.60331 100.309 9.33865 100.309 10.216H100.31ZM94.964 10.216C94.964 10.904 95.1807 11.473 95.614 11.923C96.052 12.3723 96.5957 12.597 97.245 12.597C97.8943 12.597 98.4357 12.3723 98.869 11.923C99.3077 11.479 99.527 10.91 99.527 10.216C99.527 9.52265 99.3077 8.95365 98.869 8.50898C98.4357 8.05965 97.8943 7.83498 97.245 7.83498C96.5957 7.83498 96.052 8.05965 95.614 8.50898C95.1807 8.95898 94.964 9.52798 94.964 10.216Z" fill="white" stroke="white" stroke-width="0.19375"/>
<path d="M130.54 1.10796C132.86 1.10796 134.748 2.97396 134.748 5.26796V34.989C134.748 37.283 132.86 39.149 130.539 39.149H5.24C2.92 39.149 1.032 37.283 1.032 34.989V5.26696C1.032 2.97396 2.92 1.10696 5.24 1.10696H130.54V1.10796ZM130.54 0.313965H5.24C2.485 0.313965 0.228001 2.54396 0.228001 5.26696V34.99C0.228001 37.714 2.485 39.944 5.24 39.944H130.54C133.295 39.944 135.551 37.714 135.551 34.99V5.26696C135.551 2.54396 133.295 0.313965 130.539 0.313965H130.54Z" fill="#A6A6A6"/>
<path d="M68.526 21.865C66.172 21.865 64.249 23.635 64.249 26.079C64.249 28.503 66.172 30.292 68.526 30.292C70.886 30.292 72.809 28.502 72.809 26.079C72.809 23.636 70.886 21.865 68.526 21.865ZM68.526 28.633C67.235 28.633 66.123 27.579 66.123 26.079C66.123 24.559 67.235 23.524 68.526 23.524C69.818 23.524 70.935 24.559 70.935 26.079C70.935 27.579 69.818 28.633 68.526 28.633ZM59.193 21.865C56.833 21.865 54.915 23.635 54.915 26.079C54.915 28.503 56.833 30.292 59.193 30.292C61.551 30.292 63.471 28.502 63.471 26.079C63.471 23.636 61.551 21.865 59.193 21.865ZM59.193 28.633C57.9 28.633 56.785 27.579 56.785 26.079C56.785 24.559 57.9 23.524 59.193 23.524C60.485 23.524 61.596 24.559 61.596 26.079C61.596 27.579 60.485 28.633 59.193 28.633ZM48.086 23.156V24.947H52.413C52.286 25.947 51.948 26.683 51.429 27.196C50.798 27.816 49.814 28.503 48.086 28.503C47.4609 28.5064 46.8414 28.3855 46.2634 28.1476C45.6854 27.9096 45.1603 27.5593 44.7188 27.1169C44.2772 26.6745 43.9278 26.1488 43.691 25.5703C43.4541 24.9918 43.3345 24.3721 43.339 23.747C43.3345 23.122 43.4541 22.5022 43.691 21.9237C43.9278 21.3453 44.2772 20.8196 44.7188 20.3772C45.1603 19.9347 45.6854 19.5844 46.2634 19.3465C46.8414 19.1085 47.4609 18.9877 48.086 18.991C49.526 18.991 50.574 19.548 51.346 20.268L52.623 19.006C51.543 17.986 50.103 17.202 48.086 17.202C44.436 17.202 41.366 20.138 41.366 23.747C41.366 27.356 44.436 30.292 48.086 30.292C50.06 30.292 51.542 29.653 52.707 28.454C53.901 27.274 54.274 25.614 54.274 24.274C54.274 23.858 54.238 23.476 54.176 23.156H48.086ZM93.502 24.545C93.15 23.602 92.064 21.865 89.851 21.865C87.658 21.865 85.833 23.572 85.833 26.079C85.833 28.439 87.639 30.292 90.061 30.292C90.7616 30.2987 91.453 30.1316 92.0732 29.8056C92.6935 29.4796 93.2232 29.0049 93.615 28.424L92.162 27.467C91.677 28.168 91.016 28.633 90.062 28.633C89.113 28.633 88.432 28.203 87.997 27.356L93.699 25.024L93.502 24.544V24.545ZM87.688 25.948C87.639 24.323 88.965 23.491 89.915 23.491C90.659 23.491 91.291 23.858 91.501 24.385L87.688 25.948ZM83.054 30.036H84.928V17.652H83.054V30.036ZM79.984 22.803H79.921C79.5 22.31 78.697 21.865 77.679 21.865C75.544 21.865 73.592 23.717 73.592 26.093C73.592 28.454 75.544 30.292 77.679 30.292C78.697 30.292 79.5 29.842 79.921 29.335H79.984V29.939C79.984 31.55 79.113 32.416 77.708 32.416C76.563 32.416 75.853 31.599 75.559 30.911L73.929 31.584C74.399 32.701 75.643 34.075 77.709 34.075C79.906 34.075 81.76 32.797 81.76 29.688V22.12H79.984V22.802V22.803ZM77.84 28.633C76.548 28.633 75.467 27.563 75.467 26.093C75.467 24.608 76.548 23.524 77.84 23.524C79.113 23.524 80.117 24.608 80.117 26.093C80.117 27.563 79.113 28.633 77.84 28.633ZM102.278 17.652H97.795V30.036H99.665V25.343H102.278C104.354 25.343 106.39 23.858 106.39 21.497C106.39 19.137 104.35 17.652 102.278 17.652ZM102.327 23.621H99.664V19.374H102.327C102.899 19.3655 103.451 19.5842 103.862 19.9821C104.274 20.3801 104.51 20.9249 104.52 21.497C104.52 22.455 103.723 23.621 102.327 23.621ZM113.883 21.841C112.533 21.841 111.128 22.431 110.55 23.737L112.21 24.424C112.566 23.737 113.223 23.514 113.917 23.514C114.887 23.514 115.871 24.09 115.886 25.107V25.237C115.547 25.044 114.823 24.757 113.932 24.757C112.145 24.757 110.325 25.73 110.325 27.544C110.325 29.204 111.788 30.272 113.434 30.272C114.692 30.272 115.386 29.712 115.822 29.059H115.886V30.016H117.691V25.266C117.691 23.07 116.032 21.841 113.883 21.841ZM113.658 28.628C113.046 28.628 112.194 28.328 112.194 27.578C112.194 26.62 113.257 26.252 114.177 26.252C115 26.252 115.386 26.432 115.886 26.668C115.739 27.815 114.74 28.628 113.658 28.628ZM124.269 22.112L122.121 27.481H122.057L119.835 22.112H117.819L121.157 29.615L119.252 33.789H121.206L126.349 22.112H124.269ZM107.418 30.036H109.292V17.652H107.418V30.036Z" fill="white"/>
<path d="M10.6879 7.78241C10.3934 8.08705 10.223 8.56137 10.223 9.17562V31.0856C10.223 31.6998 10.3934 32.1741 10.6879 32.4788L10.7606 32.5457L23.1827 20.273V19.9832L10.7606 7.71058L10.6879 7.78241Z" fill="url(#paint0_linear)"/>
<path d="M27.3188 24.366L23.1827 20.273V19.9832L27.3238 15.8903L27.4166 15.9435L32.3208 18.7015C33.7203 19.4842 33.7203 20.7721 32.3208 21.5597L27.4166 24.3127L27.3188 24.366Z" fill="url(#paint1_linear)"/>
<path d="M27.4166 24.3127L23.1827 20.1281L10.6879 32.4788C11.1527 32.9618 11.9108 33.02 12.7729 32.537L27.4166 24.3127Z" fill="url(#paint2_linear)"/>
<path d="M27.4166 15.9436L12.7729 7.71931C11.9108 7.24128 11.1527 7.29948 10.6879 7.78246L23.1827 20.1282L27.4166 15.9436Z" fill="url(#paint3_linear)"/>
</g>
<defs>
<linearGradient id="paint0_linear" x1="22.0801" y1="31.3134" x2="5.4538" y2="14.4924" gradientUnits="userSpaceOnUse">
<stop stop-color="#00A0FF"/>
<stop offset="0.007" stop-color="#00A1FF"/>
<stop offset="0.26" stop-color="#00BEFF"/>
<stop offset="0.512" stop-color="#00D2FF"/>
<stop offset="0.76" stop-color="#00DFFF"/>
<stop offset="1" stop-color="#00E3FF"/>
</linearGradient>
<linearGradient id="paint1_linear" x1="34.1429" y1="20.1271" x2="9.88898" y2="20.1271" gradientUnits="userSpaceOnUse">
<stop stop-color="#FFE000"/>
<stop offset="0.409" stop-color="#FFBD00"/>
<stop offset="0.775" stop-color="#FFA500"/>
<stop offset="1" stop-color="#FF9C00"/>
</linearGradient>
<linearGradient id="paint2_linear" x1="25.1143" y1="17.8534" x2="2.56887" y2="-4.95744" gradientUnits="userSpaceOnUse">
<stop stop-color="#FF3A44"/>
<stop offset="1" stop-color="#C31162"/>
</linearGradient>
<linearGradient id="paint3_linear" x1="7.54238" y1="39.7684" x2="17.6105" y2="29.5818" gradientUnits="userSpaceOnUse">
<stop stop-color="#32A071"/>
<stop offset="0.069" stop-color="#2DA771"/>
<stop offset="0.476" stop-color="#15CF74"/>
<stop offset="0.801" stop-color="#06E775"/>
<stop offset="1" stop-color="#00F076"/>
</linearGradient>
<clipPath id="clip0">
<rect width="135.716" height="40.019" fill="white"/>
</clipPath>
</defs>
</svg>
