<svg width="109" height="182" viewBox="0 0 109 182" fill="none" xmlns="http://www.w3.org/2000/svg">
<path d="M97.4805 113.681C96.0654 125.787 91.5845 135.142 84.0376 141.746C76.5431 148.297 66.5592 151.572 54.0859 151.572C40.5645 151.572 29.7158 146.724 21.54 137.029C13.4167 127.333 9.35498 114.362 9.35498 98.1152V87.1094C9.35498 76.4704 11.2417 67.1154 15.0151 59.0444C18.841 50.9735 24.2391 44.7892 31.2095 40.4917C38.1799 36.1418 46.2508 33.9668 55.4224 33.9668C67.5812 33.9668 77.3293 37.3734 84.6665 44.1865C92.0037 50.9473 96.2751 60.3285 97.4805 72.3301H82.3081C80.9979 63.2109 78.1416 56.6074 73.7393 52.5195C69.3893 48.4316 63.2837 46.3877 55.4224 46.3877C45.7791 46.3877 38.2061 49.9515 32.7031 57.0791C27.2526 64.2067 24.5273 74.3478 24.5273 87.5024V98.5869C24.5273 111.008 27.1216 120.887 32.3101 128.224C37.4985 135.561 44.7572 139.23 54.0859 139.23C62.4714 139.23 68.8914 137.343 73.3462 133.57C77.8534 129.744 80.8407 123.114 82.3081 113.681H97.4805Z" fill="#3F3D56"/>
<rect x="32.3328" y="146.019" width="10.7132" height="16.0698" fill="#3F3D56"/>
<rect x="64.5471" y="145.968" width="10.7132" height="16.0698" fill="#3F3D56"/>
<path d="M32.4075 21.9621L43.1207 29.253V40.7102H32.4075V21.9621Z" fill="#3F3D56"/>
<path d="M75.0955 21.9029L64.3822 28.1522V37.9727H75.0955V21.9029Z" fill="#3F3D56"/>
</svg>
